<svg xmlns="http://www.w3.org/2000/svg" xmlns:xlink="http://www.w3.org/1999/xlink" width="250" zoomAndPan="magnify" viewBox="0 0 187.92 196.08" height="250" preserveAspectRatio="xMidYMid meet" version="1.0"><defs><clipPath id="bc4432b681"><path d="M 0.398438 0 L 187.023438 0 L 187.023438 186.625 L 0.398438 186.625 Z M 0.398438 0 " clip-rule="nonzero"/></clipPath><clipPath id="65c386a05e"><path d="M 0.398438 11 L 187.023438 11 L 187.023438 175.824219 L 0.398438 175.824219 Z M 0.398438 11 " clip-rule="nonzero"/></clipPath></defs><g clip-path="url(#bc4432b681)"><path fill="#ffffff" d="M 0.398438 0 L 187.023438 0 L 187.023438 186.625 L 0.398438 186.625 Z M 0.398438 0 " fill-opacity="1" fill-rule="nonzero"/><path fill="#ffffff" d="M 0.398438 0 L 187.023438 0 L 187.023438 186.625 L 0.398438 186.625 Z M 0.398438 0 " fill-opacity="1" fill-rule="nonzero"/></g><path fill="#000000" d="M 55.03125 76.328125 C 54.617188 76.328125 54.222656 76.410156 53.839844 76.566406 C 53.460938 76.722656 53.125 76.949219 52.832031 77.238281 C 52.542969 77.53125 52.316406 77.867188 52.160156 78.246094 C 52.003906 78.628906 51.925781 79.023438 51.925781 79.4375 L 51.925781 90.382812 L 41.894531 90.382812 L 41.894531 79.4375 C 41.894531 79.023438 41.816406 78.628906 41.65625 78.246094 C 41.5 77.867188 41.277344 77.53125 40.984375 77.238281 C 40.695312 76.949219 40.359375 76.722656 39.976562 76.566406 C 39.597656 76.410156 39.199219 76.328125 38.789062 76.328125 C 38.378906 76.328125 37.980469 76.410156 37.601562 76.566406 C 37.21875 76.722656 36.882812 76.949219 36.59375 77.238281 C 36.300781 77.53125 36.078125 77.867188 35.921875 78.246094 C 35.761719 78.628906 35.683594 79.023438 35.683594 79.4375 L 35.683594 107.546875 C 35.683594 107.957031 35.761719 108.355469 35.921875 108.734375 C 36.078125 109.113281 36.300781 109.449219 36.59375 109.742188 C 36.882812 110.035156 37.21875 110.257812 37.601562 110.414062 C 37.980469 110.574219 38.378906 110.652344 38.789062 110.652344 C 39.199219 110.652344 39.597656 110.574219 39.976562 110.414062 C 40.359375 110.257812 40.695312 110.035156 40.984375 109.742188 C 41.277344 109.449219 41.5 109.113281 41.65625 108.734375 C 41.816406 108.355469 41.894531 107.957031 41.894531 107.546875 L 41.894531 96.597656 L 51.925781 96.597656 L 51.925781 107.546875 C 51.925781 107.957031 52.003906 108.355469 52.160156 108.734375 C 52.316406 109.113281 52.542969 109.449219 52.832031 109.742188 C 53.125 110.035156 53.460938 110.257812 53.839844 110.414062 C 54.222656 110.574219 54.617188 110.652344 55.03125 110.652344 C 55.441406 110.652344 55.835938 110.574219 56.21875 110.414062 C 56.597656 110.257812 56.933594 110.035156 57.226562 109.742188 C 57.515625 109.449219 57.742188 109.113281 57.898438 108.734375 C 58.054688 108.355469 58.132812 107.957031 58.132812 107.546875 L 58.132812 79.4375 C 58.132812 79.023438 58.054688 78.628906 57.898438 78.246094 C 57.742188 77.867188 57.515625 77.53125 57.226562 77.238281 C 56.933594 76.949219 56.597656 76.722656 56.21875 76.566406 C 55.835938 76.410156 55.441406 76.328125 55.03125 76.328125 Z M 55.03125 76.328125 " fill-opacity="1" fill-rule="nonzero"/><path fill="#000000" d="M 93.371094 82.542969 L 97.902344 82.542969 C 98.214844 82.542969 98.945312 83.351562 98.945312 84.691406 C 98.945312 85.101562 99.023438 85.5 99.183594 85.878906 C 99.339844 86.261719 99.566406 86.597656 99.855469 86.886719 C 100.148438 87.179688 100.484375 87.402344 100.863281 87.5625 C 101.242188 87.71875 101.640625 87.796875 102.050781 87.796875 C 102.464844 87.796875 102.859375 87.71875 103.238281 87.5625 C 103.621094 87.402344 103.957031 87.179688 104.246094 86.886719 C 104.539062 86.597656 104.761719 86.261719 104.921875 85.878906 C 105.078125 85.5 105.15625 85.101562 105.15625 84.691406 C 105.191406 84.179688 105.171875 83.667969 105.105469 83.160156 C 105.039062 82.652344 104.925781 82.152344 104.761719 81.667969 C 104.597656 81.179688 104.386719 80.714844 104.132812 80.269531 C 103.878906 79.824219 103.582031 79.410156 103.246094 79.019531 C 102.910156 78.632812 102.539062 78.28125 102.132812 77.964844 C 101.730469 77.652344 101.296875 77.378906 100.839844 77.148438 C 100.382812 76.917969 99.90625 76.734375 99.410156 76.59375 C 98.917969 76.457031 98.414062 76.367188 97.902344 76.328125 L 93.371094 76.328125 C 92.859375 76.367188 92.355469 76.457031 91.859375 76.59375 C 91.363281 76.730469 90.886719 76.914062 90.429688 77.144531 C 89.96875 77.375 89.539062 77.648438 89.132812 77.960938 C 88.726562 78.277344 88.355469 78.628906 88.019531 79.015625 C 87.683594 79.40625 87.386719 79.820312 87.128906 80.265625 C 86.875 80.710938 86.664062 81.179688 86.5 81.664062 C 86.335938 82.152344 86.222656 82.648438 86.152344 83.160156 C 86.085938 83.667969 86.070312 84.179688 86.101562 84.691406 L 86.101562 102.289062 C 86.070312 102.800781 86.085938 103.3125 86.152344 103.820312 C 86.21875 104.332031 86.335938 104.828125 86.5 105.3125 C 86.664062 105.800781 86.871094 106.265625 87.128906 106.710938 C 87.382812 107.15625 87.679688 107.574219 88.015625 107.960938 C 88.351562 108.347656 88.722656 108.699219 89.125 109.015625 C 89.53125 109.328125 89.960938 109.601562 90.421875 109.832031 C 90.878906 110.066406 91.355469 110.25 91.847656 110.386719 C 92.34375 110.523438 92.84375 110.613281 93.355469 110.652344 L 97.902344 110.652344 C 98.414062 110.613281 98.917969 110.523438 99.410156 110.386719 C 99.90625 110.25 100.382812 110.066406 100.839844 109.832031 C 101.296875 109.601562 101.730469 109.328125 102.132812 109.015625 C 102.539062 108.699219 102.910156 108.347656 103.246094 107.960938 C 103.582031 107.574219 103.878906 107.15625 104.132812 106.710938 C 104.386719 106.265625 104.597656 105.800781 104.761719 105.3125 C 104.925781 104.828125 105.039062 104.332031 105.105469 103.820312 C 105.171875 103.3125 105.191406 102.800781 105.15625 102.289062 C 105.15625 101.878906 105.078125 101.480469 104.921875 101.101562 C 104.761719 100.722656 104.539062 100.386719 104.246094 100.09375 C 103.957031 99.804688 103.621094 99.578125 103.238281 99.421875 C 102.859375 99.261719 102.464844 99.183594 102.050781 99.183594 C 101.640625 99.183594 101.242188 99.261719 100.863281 99.421875 C 100.484375 99.578125 100.148438 99.804688 99.855469 100.09375 C 99.566406 100.386719 99.339844 100.722656 99.183594 101.101562 C 99.023438 101.480469 98.945312 101.878906 98.945312 102.289062 C 98.945312 103.628906 98.21875 104.441406 97.902344 104.441406 L 93.371094 104.441406 C 93.058594 104.441406 92.328125 103.628906 92.328125 102.289062 L 92.328125 84.691406 C 92.3125 83.351562 93.054688 82.542969 93.371094 82.542969 Z M 93.371094 82.542969 " fill-opacity="1" fill-rule="nonzero"/><path fill="#000000" d="M 115.882812 82.542969 L 120.414062 82.542969 C 120.722656 82.542969 121.457031 83.351562 121.457031 84.691406 C 121.457031 85.101562 121.535156 85.5 121.691406 85.878906 C 121.851562 86.261719 122.074219 86.597656 122.367188 86.886719 C 122.65625 87.179688 122.992188 87.402344 123.375 87.5625 C 123.753906 87.71875 124.148438 87.796875 124.5625 87.796875 C 124.972656 87.796875 125.371094 87.71875 125.75 87.5625 C 126.128906 87.402344 126.464844 87.179688 126.757812 86.886719 C 127.046875 86.597656 127.273438 86.261719 127.429688 85.878906 C 127.589844 85.5 127.667969 85.101562 127.667969 84.691406 C 127.699219 84.179688 127.683594 83.667969 127.617188 83.160156 C 127.550781 82.652344 127.433594 82.152344 127.269531 81.667969 C 127.105469 81.179688 126.898438 80.714844 126.644531 80.269531 C 126.386719 79.824219 126.09375 79.410156 125.757812 79.019531 C 125.417969 78.632812 125.050781 78.28125 124.644531 77.964844 C 124.238281 77.652344 123.808594 77.378906 123.351562 77.148438 C 122.890625 76.917969 122.414062 76.734375 121.921875 76.59375 C 121.425781 76.457031 120.925781 76.367188 120.414062 76.328125 L 115.882812 76.328125 C 115.371094 76.367188 114.867188 76.457031 114.375 76.59375 C 113.878906 76.734375 113.402344 76.917969 112.945312 77.148438 C 112.488281 77.378906 112.054688 77.652344 111.652344 77.964844 C 111.246094 78.28125 110.875 78.632812 110.539062 79.019531 C 110.203125 79.410156 109.90625 79.824219 109.652344 80.269531 C 109.398438 80.714844 109.1875 81.179688 109.023438 81.667969 C 108.859375 82.152344 108.746094 82.652344 108.679688 83.160156 C 108.613281 83.667969 108.59375 84.179688 108.628906 84.691406 L 108.628906 102.289062 C 108.59375 102.800781 108.613281 103.3125 108.679688 103.820312 C 108.746094 104.332031 108.859375 104.828125 109.023438 105.3125 C 109.1875 105.800781 109.398438 106.265625 109.652344 106.710938 C 109.90625 107.15625 110.203125 107.574219 110.539062 107.960938 C 110.875 108.347656 111.246094 108.699219 111.652344 109.015625 C 112.054688 109.328125 112.488281 109.601562 112.945312 109.832031 C 113.402344 110.066406 113.878906 110.25 114.375 110.386719 C 114.867188 110.523438 115.371094 110.613281 115.882812 110.652344 L 120.414062 110.652344 C 120.925781 110.613281 121.425781 110.523438 121.921875 110.386719 C 122.414062 110.25 122.890625 110.066406 123.351562 109.832031 C 123.808594 109.601562 124.238281 109.328125 124.644531 109.015625 C 125.050781 108.699219 125.417969 108.347656 125.757812 107.960938 C 126.09375 107.574219 126.386719 107.15625 126.644531 106.710938 C 126.898438 106.265625 127.105469 105.800781 127.269531 105.3125 C 127.433594 104.828125 127.550781 104.332031 127.617188 103.820312 C 127.683594 103.3125 127.699219 102.800781 127.667969 102.289062 C 127.667969 101.878906 127.589844 101.480469 127.429688 101.101562 C 127.273438 100.722656 127.046875 100.386719 126.757812 100.09375 C 126.464844 99.804688 126.128906 99.578125 125.75 99.421875 C 125.371094 99.261719 124.972656 99.183594 124.5625 99.183594 C 124.148438 99.183594 123.753906 99.261719 123.375 99.421875 C 122.992188 99.578125 122.65625 99.804688 122.367188 100.09375 C 122.074219 100.386719 121.851562 100.722656 121.691406 101.101562 C 121.535156 101.480469 121.457031 101.878906 121.457031 102.289062 C 121.457031 103.628906 120.730469 104.441406 120.414062 104.441406 L 115.882812 104.441406 C 115.570312 104.441406 114.839844 103.628906 114.839844 102.289062 L 114.839844 84.691406 C 114.839844 83.351562 115.566406 82.542969 115.882812 82.542969 Z M 115.882812 82.542969 " fill-opacity="1" fill-rule="nonzero"/><path fill="#000000" d="M 74.582031 78.582031 C 74.488281 78.257812 74.347656 77.960938 74.15625 77.683594 C 73.964844 77.40625 73.734375 77.167969 73.464844 76.964844 C 73.195312 76.765625 72.902344 76.609375 72.582031 76.503906 C 72.265625 76.398438 71.9375 76.34375 71.601562 76.34375 C 71.265625 76.34375 70.9375 76.398438 70.621094 76.503906 C 70.300781 76.609375 70.007812 76.765625 69.738281 76.964844 C 69.46875 77.167969 69.238281 77.40625 69.050781 77.683594 C 68.859375 77.960938 68.714844 78.257812 68.621094 78.582031 L 60.484375 106.691406 C 60.371094 107.089844 60.339844 107.492188 60.386719 107.902344 C 60.433594 108.3125 60.558594 108.699219 60.757812 109.0625 C 60.960938 109.421875 61.222656 109.730469 61.546875 109.988281 C 61.871094 110.246094 62.230469 110.429688 62.628906 110.542969 C 63.023438 110.65625 63.429688 110.691406 63.839844 110.640625 C 64.25 110.59375 64.636719 110.46875 64.996094 110.269531 C 65.359375 110.070312 65.667969 109.804688 65.921875 109.480469 C 66.179688 109.160156 66.363281 108.796875 66.476562 108.398438 L 67.441406 105.046875 L 75.761719 105.046875 L 76.726562 108.398438 C 76.820312 108.726562 76.964844 109.027344 77.15625 109.308594 C 77.351562 109.589844 77.582031 109.832031 77.855469 110.035156 C 78.125 110.238281 78.421875 110.394531 78.746094 110.503906 C 79.066406 110.613281 79.398438 110.667969 79.738281 110.667969 C 80.023438 110.65625 80.300781 110.617188 80.574219 110.542969 C 80.972656 110.425781 81.328125 110.238281 81.652344 109.984375 C 81.972656 109.726562 82.234375 109.417969 82.433594 109.054688 C 82.636719 108.695312 82.761719 108.3125 82.808594 107.902344 C 82.859375 107.492188 82.828125 107.089844 82.71875 106.691406 Z M 69.242188 98.832031 L 71.601562 90.632812 L 73.992188 98.832031 Z M 69.242188 98.832031 " fill-opacity="1" fill-rule="nonzero"/><path fill="#000000" d="M 141.4375 76.3125 L 133.953125 76.3125 C 133.542969 76.3125 133.148438 76.394531 132.765625 76.550781 C 132.386719 76.707031 132.050781 76.933594 131.757812 77.222656 C 131.46875 77.515625 131.242188 77.851562 131.085938 78.230469 C 130.929688 78.613281 130.851562 79.007812 130.851562 79.421875 L 130.851562 107.5625 C 130.851562 107.972656 130.929688 108.371094 131.085938 108.75 C 131.242188 109.128906 131.46875 109.464844 131.757812 109.757812 C 132.050781 110.050781 132.386719 110.273438 132.765625 110.429688 C 133.148438 110.589844 133.542969 110.667969 133.953125 110.667969 C 134.367188 110.667969 134.761719 110.589844 135.144531 110.429688 C 135.523438 110.273438 135.859375 110.050781 136.152344 109.757812 C 136.441406 109.464844 136.667969 109.128906 136.824219 108.75 C 136.980469 108.371094 137.058594 107.972656 137.058594 107.5625 L 137.058594 97.527344 L 141.4375 97.527344 C 142.136719 97.527344 142.824219 97.460938 143.507812 97.324219 C 144.191406 97.1875 144.851562 96.988281 145.496094 96.722656 C 146.140625 96.453125 146.75 96.128906 147.328125 95.742188 C 147.910156 95.355469 148.445312 94.914062 148.9375 94.421875 C 149.429688 93.929688 149.867188 93.394531 150.253906 92.816406 C 150.644531 92.234375 150.96875 91.625 151.234375 90.980469 C 151.503906 90.335938 151.703125 89.675781 151.839844 88.992188 C 151.976562 88.308594 152.042969 87.617188 152.042969 86.921875 C 152.042969 86.226562 151.976562 85.535156 151.839844 84.851562 C 151.703125 84.167969 151.503906 83.503906 151.234375 82.863281 C 150.96875 82.21875 150.644531 81.605469 150.253906 81.027344 C 149.867188 80.449219 149.429688 79.914062 148.9375 79.421875 C 148.445312 78.929688 147.910156 78.488281 147.328125 78.101562 C 146.75 77.714844 146.140625 77.386719 145.496094 77.121094 C 144.851562 76.855469 144.191406 76.652344 143.507812 76.519531 C 142.824219 76.382812 142.136719 76.3125 141.4375 76.3125 Z M 141.4375 91.316406 L 137.058594 91.316406 L 137.058594 82.527344 L 141.4375 82.527344 C 141.726562 82.527344 142.011719 82.554688 142.296875 82.609375 C 142.578125 82.667969 142.851562 82.75 143.121094 82.859375 C 143.386719 82.972656 143.640625 83.105469 143.878906 83.265625 C 144.121094 83.425781 144.339844 83.609375 144.546875 83.8125 C 144.75 84.019531 144.933594 84.238281 145.09375 84.480469 C 145.253906 84.71875 145.386719 84.972656 145.496094 85.238281 C 145.609375 85.507812 145.691406 85.78125 145.746094 86.0625 C 145.804688 86.347656 145.832031 86.632812 145.832031 86.921875 C 145.832031 87.210938 145.804688 87.496094 145.746094 87.777344 C 145.691406 88.0625 145.609375 88.335938 145.496094 88.601562 C 145.386719 88.871094 145.253906 89.125 145.09375 89.363281 C 144.933594 89.601562 144.75 89.824219 144.546875 90.027344 C 144.339844 90.234375 144.121094 90.414062 143.878906 90.574219 C 143.640625 90.734375 143.386719 90.871094 143.121094 90.980469 C 142.851562 91.09375 142.578125 91.175781 142.296875 91.230469 C 142.011719 91.289062 141.726562 91.316406 141.4375 91.316406 Z M 141.4375 91.316406 " fill-opacity="1" fill-rule="nonzero"/><g clip-path="url(#65c386a05e)"><path fill="#000000" d="M 1.238281 122.253906 C 1.519531 122.691406 1.890625 123.035156 2.347656 123.28125 C 2.804688 123.53125 3.292969 123.652344 3.816406 123.652344 L 17.476562 123.652344 C 18.226562 125.554688 19.046875 127.429688 19.9375 129.273438 C 20.828125 131.113281 21.785156 132.921875 22.808594 134.691406 C 23.832031 136.464844 24.921875 138.195312 26.078125 139.882812 C 27.230469 141.574219 28.445312 143.21875 29.722656 144.816406 C 31 146.417969 32.335938 147.964844 33.730469 149.464844 C 35.121094 150.964844 36.566406 152.410156 38.070312 153.800781 C 39.570312 155.191406 41.121094 156.523438 42.722656 157.796875 C 44.320312 159.074219 45.96875 160.285156 47.65625 161.4375 C 49.347656 162.589844 51.082031 163.675781 52.851562 164.699219 C 54.625 165.722656 56.433594 166.675781 58.277344 167.5625 C 60.121094 168.449219 61.996094 169.269531 63.898438 170.015625 C 65.804688 170.761719 67.734375 171.4375 69.691406 172.039062 C 71.644531 172.640625 73.621094 173.171875 75.617188 173.625 C 77.609375 174.082031 79.617188 174.460938 81.640625 174.765625 C 83.664062 175.070312 85.695312 175.300781 87.738281 175.453125 C 89.777344 175.605469 91.820312 175.679688 93.867188 175.679688 C 95.914062 175.679688 97.957031 175.605469 99.996094 175.453125 C 102.035156 175.300781 104.066406 175.070312 106.089844 174.765625 C 108.113281 174.460938 110.121094 174.082031 112.117188 173.625 C 114.113281 173.171875 116.085938 172.640625 118.042969 172.039062 C 119.996094 171.4375 121.929688 170.761719 123.832031 170.015625 C 125.738281 169.269531 127.613281 168.449219 129.457031 167.5625 C 131.300781 166.675781 133.105469 165.722656 134.878906 164.699219 C 136.652344 163.675781 138.382812 162.589844 140.074219 161.4375 C 141.765625 160.285156 143.410156 159.074219 145.011719 157.796875 C 146.613281 156.523438 148.164062 155.191406 149.664062 153.800781 C 151.164062 152.410156 152.613281 150.964844 154.003906 149.464844 C 155.398438 147.964844 156.730469 146.417969 158.007812 144.816406 C 159.285156 143.21875 160.5 141.574219 161.65625 139.882812 C 162.808594 138.195312 163.898438 136.464844 164.925781 134.691406 C 165.949219 132.921875 166.90625 131.113281 167.796875 129.273438 C 168.6875 127.429688 169.503906 125.554688 170.253906 123.652344 L 183.917969 123.652344 C 184.175781 123.652344 184.425781 123.621094 184.675781 123.558594 C 184.921875 123.492188 185.160156 123.402344 185.386719 123.28125 C 185.613281 123.160156 185.820312 123.011719 186.007812 122.839844 C 186.199219 122.667969 186.363281 122.472656 186.503906 122.257812 C 186.644531 122.046875 186.757812 121.816406 186.84375 121.574219 C 186.929688 121.335938 186.984375 121.085938 187.007812 120.832031 C 187.03125 120.574219 187.023438 120.320312 186.984375 120.066406 C 186.945312 119.8125 186.875 119.570312 186.773438 119.332031 L 176.15625 94.390625 L 186.804688 67.585938 C 186.992188 67.109375 187.054688 66.613281 187 66.105469 C 186.945312 65.59375 186.777344 65.125 186.496094 64.695312 C 186.207031 64.269531 185.832031 63.933594 185.378906 63.691406 C 184.921875 63.449219 184.433594 63.328125 183.917969 63.332031 L 170.253906 63.332031 C 169.503906 61.425781 168.6875 59.554688 167.796875 57.710938 C 166.90625 55.867188 165.949219 54.058594 164.925781 52.289062 C 163.898438 50.515625 162.808594 48.785156 161.65625 47.097656 C 160.5 45.40625 159.285156 43.761719 158.007812 42.164062 C 156.730469 40.566406 155.398438 39.015625 154.003906 37.515625 C 152.613281 36.019531 151.164062 34.574219 149.664062 33.183594 C 148.164062 31.792969 146.613281 30.457031 145.011719 29.183594 C 143.410156 27.910156 141.765625 26.695312 140.074219 25.542969 C 138.382812 24.390625 136.652344 23.304688 134.878906 22.28125 C 133.105469 21.257812 131.300781 20.304688 129.457031 19.417969 C 127.613281 18.53125 125.738281 17.714844 123.832031 16.964844 C 121.929688 16.21875 119.996094 15.542969 118.042969 14.941406 C 116.085938 14.339844 114.113281 13.808594 112.117188 13.355469 C 110.121094 12.902344 108.113281 12.519531 106.089844 12.214844 C 104.066406 11.910156 102.035156 11.683594 99.996094 11.53125 C 97.957031 11.378906 95.914062 11.300781 93.867188 11.300781 C 91.820312 11.300781 89.777344 11.378906 87.738281 11.53125 C 85.695312 11.683594 83.664062 11.910156 81.640625 12.214844 C 79.617188 12.519531 77.609375 12.902344 75.617188 13.355469 C 73.621094 13.808594 71.644531 14.339844 69.691406 14.941406 C 67.734375 15.542969 65.804688 16.21875 63.898438 16.964844 C 61.996094 17.714844 60.121094 18.53125 58.277344 19.417969 C 56.433594 20.304688 54.625 21.257812 52.851562 22.28125 C 51.082031 23.304688 49.347656 24.390625 47.65625 25.542969 C 45.96875 26.695312 44.320312 27.910156 42.722656 29.183594 C 41.121094 30.457031 39.570312 31.792969 38.070312 33.183594 C 36.566406 34.574219 35.121094 36.019531 33.730469 37.515625 C 32.335938 39.015625 31 40.566406 29.722656 42.164062 C 28.445312 43.761719 27.230469 45.40625 26.078125 47.097656 C 24.921875 48.785156 23.832031 50.515625 22.808594 52.289062 C 21.785156 54.058594 20.828125 55.867188 19.9375 57.710938 C 19.046875 59.554688 18.226562 61.425781 17.476562 63.332031 L 3.816406 63.332031 C 3.296875 63.328125 2.8125 63.449219 2.355469 63.691406 C 1.898438 63.933594 1.527344 64.269531 1.238281 64.695312 C 0.957031 65.125 0.785156 65.59375 0.730469 66.105469 C 0.675781 66.613281 0.742188 67.109375 0.925781 67.585938 L 11.578125 94.390625 L 0.957031 119.332031 C 0.753906 119.8125 0.675781 120.3125 0.726562 120.828125 C 0.773438 121.347656 0.945312 121.820312 1.238281 122.253906 Z M 93.867188 169.464844 C 92.027344 169.460938 90.191406 169.390625 88.355469 169.253906 C 86.523438 169.117188 84.695312 168.914062 82.878906 168.640625 C 81.058594 168.371094 79.25 168.039062 77.457031 167.636719 C 75.660156 167.234375 73.882812 166.769531 72.121094 166.242188 C 70.359375 165.710938 68.621094 165.121094 66.902344 164.464844 C 65.183594 163.808594 63.492188 163.089844 61.824219 162.3125 C 60.160156 161.535156 58.523438 160.699219 56.917969 159.800781 C 55.3125 158.90625 53.738281 157.953125 52.203125 156.941406 C 50.667969 155.929688 49.167969 154.867188 47.707031 153.746094 C 46.25 152.628906 44.832031 151.457031 43.457031 150.234375 C 42.082031 149.015625 40.753906 147.746094 39.46875 146.425781 C 38.1875 145.109375 36.953125 143.746094 35.769531 142.339844 C 34.582031 140.933594 33.453125 139.484375 32.371094 137.996094 C 31.292969 136.503906 30.269531 134.980469 29.300781 133.414062 C 28.332031 131.851562 27.417969 130.253906 26.566406 128.625 C 25.710938 126.996094 24.917969 125.339844 24.183594 123.652344 L 39.648438 123.652344 C 40.988281 126.058594 42.476562 128.363281 44.121094 130.574219 C 45.765625 132.78125 47.550781 134.871094 49.472656 136.839844 C 51.394531 138.8125 53.441406 140.644531 55.605469 142.34375 C 57.773438 144.042969 60.042969 145.589844 62.417969 146.984375 C 64.789062 148.378906 67.242188 149.613281 69.78125 150.683594 C 72.316406 151.75 74.914062 152.648438 77.570312 153.371094 C 80.226562 154.09375 82.917969 154.636719 85.644531 155.003906 C 88.375 155.367188 91.113281 155.550781 93.867188 155.550781 C 96.617188 155.550781 99.359375 155.367188 102.085938 155.003906 C 104.816406 154.636719 107.507812 154.09375 110.164062 153.371094 C 112.820312 152.648438 115.417969 151.75 117.953125 150.683594 C 120.488281 149.613281 122.945312 148.378906 125.316406 146.984375 C 127.6875 145.589844 129.960938 144.042969 132.125 142.34375 C 134.292969 140.644531 136.335938 138.8125 138.261719 136.839844 C 140.183594 134.871094 141.964844 132.78125 143.609375 130.574219 C 145.253906 128.363281 146.746094 126.058594 148.082031 123.652344 L 163.546875 123.652344 C 162.8125 125.339844 162.019531 126.996094 161.167969 128.625 C 160.3125 130.253906 159.402344 131.851562 158.433594 133.414062 C 157.464844 134.980469 156.441406 136.503906 155.359375 137.996094 C 154.28125 139.484375 153.148438 140.933594 151.964844 142.339844 C 150.78125 143.746094 149.546875 145.109375 148.261719 146.425781 C 146.980469 147.746094 145.652344 149.015625 144.277344 150.234375 C 142.902344 151.457031 141.484375 152.628906 140.023438 153.746094 C 138.566406 154.867188 137.066406 155.929688 135.53125 156.941406 C 133.992188 157.953125 132.421875 158.90625 130.816406 159.800781 C 129.210938 160.699219 127.574219 161.535156 125.90625 162.3125 C 124.242188 163.089844 122.546875 163.808594 120.832031 164.464844 C 119.113281 165.121094 117.371094 165.710938 115.609375 166.242188 C 113.847656 166.769531 112.070312 167.234375 110.277344 167.636719 C 108.480469 168.039062 106.675781 168.371094 104.855469 168.640625 C 103.035156 168.914062 101.210938 169.117188 99.375 169.253906 C 97.542969 169.390625 95.707031 169.460938 93.867188 169.464844 Z M 93.867188 17.515625 C 95.707031 17.519531 97.542969 17.589844 99.375 17.726562 C 101.210938 17.867188 103.035156 18.070312 104.855469 18.339844 C 106.675781 18.609375 108.480469 18.945312 110.277344 19.34375 C 112.070312 19.746094 113.847656 20.210938 115.609375 20.738281 C 117.371094 21.269531 119.113281 21.863281 120.832031 22.519531 C 122.546875 23.171875 124.242188 23.890625 125.90625 24.667969 C 127.574219 25.445312 129.210938 26.285156 130.816406 27.179688 C 132.421875 28.078125 133.992188 29.03125 135.53125 30.039062 C 137.066406 31.050781 138.566406 32.117188 140.023438 33.234375 C 141.484375 34.355469 142.902344 35.523438 144.277344 36.746094 C 145.652344 37.96875 146.980469 39.238281 148.261719 40.554688 C 149.546875 41.871094 150.78125 43.234375 151.964844 44.644531 C 153.148438 46.050781 154.28125 47.5 155.359375 48.988281 C 156.441406 50.476562 157.464844 52.003906 158.433594 53.566406 C 159.402344 55.128906 160.3125 56.726562 161.167969 58.355469 C 162.019531 59.984375 162.8125 61.644531 163.546875 63.332031 L 148.082031 63.332031 C 146.746094 60.925781 145.253906 58.617188 143.609375 56.410156 C 141.964844 54.199219 140.183594 52.113281 138.261719 50.140625 C 136.335938 48.171875 134.292969 46.335938 132.125 44.636719 C 129.960938 42.941406 127.6875 41.394531 125.316406 39.996094 C 122.945312 38.601562 120.488281 37.367188 117.953125 36.300781 C 115.417969 35.230469 112.820312 34.335938 110.164062 33.609375 C 107.507812 32.886719 104.816406 32.34375 102.085938 31.980469 C 99.359375 31.613281 96.617188 31.429688 93.867188 31.429688 C 91.113281 31.429688 88.375 31.613281 85.644531 31.980469 C 82.917969 32.34375 80.226562 32.886719 77.570312 33.609375 C 74.914062 34.335938 72.316406 35.230469 69.78125 36.300781 C 67.242188 37.367188 64.789062 38.601562 62.417969 39.996094 C 60.042969 41.394531 57.773438 42.941406 55.605469 44.636719 C 53.441406 46.335938 51.394531 48.171875 49.472656 50.140625 C 47.550781 52.113281 45.765625 54.199219 44.121094 56.410156 C 42.476562 58.617188 40.988281 60.925781 39.648438 63.332031 L 24.183594 63.332031 C 24.917969 61.644531 25.710938 59.984375 26.566406 58.355469 C 27.417969 56.726562 28.332031 55.128906 29.300781 53.566406 C 30.269531 52.003906 31.292969 50.476562 32.371094 48.988281 C 33.453125 47.5 34.582031 46.050781 35.769531 44.644531 C 36.953125 43.234375 38.1875 41.871094 39.46875 40.554688 C 40.753906 39.238281 42.082031 37.96875 43.457031 36.746094 C 44.832031 35.523438 46.25 34.355469 47.707031 33.234375 C 49.167969 32.117188 50.667969 31.050781 52.203125 30.039062 C 53.738281 29.03125 55.3125 28.078125 56.917969 27.179688 C 58.523438 26.285156 60.160156 25.445312 61.824219 24.667969 C 63.492188 23.890625 65.183594 23.171875 66.902344 22.519531 C 68.621094 21.863281 70.359375 21.269531 72.121094 20.738281 C 73.882812 20.210938 75.660156 19.746094 77.457031 19.34375 C 79.25 18.945312 81.058594 18.609375 82.878906 18.339844 C 84.695312 18.070312 86.523438 17.867188 88.355469 17.726562 C 90.191406 17.589844 92.027344 17.519531 93.867188 17.515625 Z M 17.789062 95.664062 C 18.121094 94.871094 18.132812 94.074219 17.820312 93.273438 L 8.378906 69.542969 L 179.351562 69.542969 L 169.914062 93.273438 C 169.601562 94.074219 169.613281 94.871094 169.945312 95.664062 L 179.230469 117.4375 L 8.503906 117.4375 Z M 17.789062 95.664062 " fill-opacity="1" fill-rule="nonzero"/></g></svg>